<svg width="165" height="67" viewBox="0 0 165 67" fill="none" xmlns="http://www.w3.org/2000/svg">
<path d="M14 2.13336C2.26665 7.06669 -2.66668 20.5334 3.46665 31.2C7.33332 38.1334 12 41.0667 20.2667 41.7334C26.2667 42.2667 28.1333 41.7334 32.5333 38.9334C45.0667 30.6667 45.0667 13.6 32.5333 4.26669C28.4 1.20003 18.8 0.133358 14 2.13336ZM32.4 11.6C36.1333 15.3334 32.5333 21.6 27.4667 20C24.1333 18.9334 22.9333 15.8667 24.6667 12.5334C26.2667 9.73336 30 9.20003 32.4 11.6ZM23.3333 22.6667C23.3333 23.7334 22.4 24.6667 21.3333 24.6667C20.2667 24.6667 19.3333 23.7334 19.3333 22.6667C19.3333 21.6 20.2667 20.6667 21.3333 20.6667C22.4 20.6667 23.3333 21.6 23.3333 22.6667Z" fill="white"/>
<path d="M136.8 2.4C134.267 3.33333 130.4 6.26666 128.133 9.06666C117.6 22.2667 127.467 42 144.667 42C165.733 42 172.4 12.5333 153.333 3.33333C147.067 0.266664 143.333 0.133331 136.8 2.4ZM155.333 12C157.333 14.4 156.667 18 153.733 19.8667C151.867 20.9333 150.8 20.6667 148.533 18.5333C146.267 16.1333 146 15.2 147.2 12.8C148.933 9.6 152.933 9.06666 155.333 12ZM146 22.6667C146 23.7333 145.067 24.6667 144 24.6667C142.933 24.6667 142 23.7333 142 22.6667C142 21.6 142.933 20.6667 144 20.6667C145.067 20.6667 146 21.6 146 22.6667Z" fill="white"/>
<path d="M61.2 31.4666C58 35.0666 58 46.2666 61.3333 53.1999C67.6 66.2666 86.9333 70.3999 98.1333 61.0666C106.667 53.7333 110.4 37.0666 104.667 31.3333C102.267 28.9333 100.267 28.6666 82.9333 28.6666C65.2 28.6666 63.6 28.9333 61.2 31.4666Z" fill="white"/>
</svg>
